<svg width="512" height="512" viewBox="0 0 512 512" fill="none" xmlns="http://www.w3.org/2000/svg">
<rect x="0.5" y="0.5" width="511" height="511" rx="127.5" fill="url(#paint0_linear_2108_43)" stroke="white"/>
<path d="M280.546 126.568C280.546 126.568 312.182 170.326 312.182 256.5C312.182 342.674 280.546 386.432 280.546 386.432M232.454 126.568C232.454 126.568 200.818 170.326 200.818 256.5C200.818 342.674 232.454 386.432 232.454 386.432M119.11 256.5H393.89M394 256.5C394 292.967 379.513 327.941 353.727 353.727C327.941 379.513 292.967 394 256.5 394C220.033 394 185.059 379.513 159.273 353.727C133.487 327.941 119 292.967 119 256.5C119 220.033 133.487 185.059 159.273 159.273C185.059 133.487 220.033 119 256.5 119C292.967 119 327.941 133.487 353.727 159.273C379.513 185.059 394 220.033 394 256.5Z" stroke="white" stroke-width="33" stroke-linecap="round" stroke-linejoin="round"/>
<defs>
<linearGradient id="paint0_linear_2108_43" x1="25" y1="256" x2="512" y2="256" gradientUnits="userSpaceOnUse">
<stop stop-color="#2863EC"/>
<stop offset="1" stop-color="#7C3AED"/>
</linearGradient>
</defs>
</svg>
